<svg id="Layer_1" data-name="Layer 1" xmlns="http://www.w3.org/2000/svg" viewBox="0 0 207.66 105.56"><defs><style>.cls-1{font-size:23.24px;font-family:Dashboard-Regular, Dashboard;letter-spacing:0.01em;}.cls-2{fill:#e55d57;}.cls-3{fill:#7a80ce;}.cls-4{fill:#72c6b8;}.cls-5{fill:#f1f4f3;}.cls-6{fill:#6971af;}.cls-7{fill:#5e9e92;}</style></defs><text class="cls-1" transform="translate(37 58.71)">REVTRANCE</text><path class="cls-2" d="M29.45,68.27l-2.07,1.25c-1,.61-2,1.22-3.05,1.84l-1.9,1.14-5.92,3.57L11.3,79.21c-1.7,1-3.44,2.16-5.5,2.06a4,4,0,0,1-3.28-1.76,5.11,5.11,0,0,1-.73-2.67v-50a5.08,5.08,0,0,1,.73-2.67A4,4,0,0,1,5.8,22.41c2.06-.1,3.8,1.05,5.5,2.06l5.21,3.14,5.92,3.57,1.9,1.14c1,.62,2,1.23,3.05,1.84l2.07,1.25a19.19,19.19,0,0,0-3.53,3.23l-.38.45-.42.52c-.26.35-.53.71-.79,1.09a22.46,22.46,0,0,0-3.57,11.14A22.46,22.46,0,0,0,24.33,63c.26.38.53.74.79,1.09l.42.52c.13.15.25.3.38.44A18.87,18.87,0,0,0,29.45,68.27Z"/><path class="cls-3" d="M77.22,31.77l-3.52,0-8.76.05-11.22.05L42.8,32c-1.45,0-2.92-.05-4.37.06A16.45,16.45,0,0,0,36,32.4a19.65,19.65,0,0,0-6.29,2.84,1.77,1.77,0,0,0-.24.17,19.19,19.19,0,0,0-3.53,3.23,3,3,0,0,0-.38.45l-.42.52a13.32,13.32,0,0,0-.79,1.14V7.41a5.1,5.1,0,0,1,.73-2.66A4,4,0,0,1,28.34,3c2.08-.11,3.8,1,5.51,2.06l5.2,3.14c2,1.19,4,2.37,5.92,3.57l5,3C50.68,15.19,76.46,31.31,77.22,31.77Z"/><path class="cls-4" d="M77.22,71.91l-3.52,0-8.76-.05-11.22,0-10.92,0c-1.45,0-2.92,0-4.37-.06A15.26,15.26,0,0,1,36,71.27a19.41,19.41,0,0,1-6.29-2.83,1.77,1.77,0,0,1-.24-.17A18.87,18.87,0,0,1,25.92,65a2.54,2.54,0,0,1-.38-.44l-.42-.52a13.32,13.32,0,0,1-.79-1.14V96.27a5.1,5.1,0,0,0,.73,2.66,4,4,0,0,0,3.28,1.76c2.08.11,3.8-1,5.51-2.06l5.2-3.14c2-1.19,4-2.37,5.92-3.57,1.66-1,3.3-2,5-3C50.68,88.49,76.46,72.37,77.22,71.91Z"/><path class="cls-5" d="M29.45,68.27l-2.07,1.25c-1,.61-2,1.22-3.05,1.84V63c.11.16.23.33.36.49s.28.4.43.6l.42.52c.13.15.25.3.38.44A18.87,18.87,0,0,0,29.45,68.27Z"/><path class="cls-5" d="M24.69,40.2c-.13.17-.25.34-.36.5V32.32c1,.62,2,1.23,3.05,1.84l2.07,1.25a19.19,19.19,0,0,0-3.53,3.23l-.38.45-.42.52C25,39.81,24.82,40,24.69,40.2Z"/><path class="cls-6" d="M29.45,35.41a19.19,19.19,0,0,0-3.53,3.23,3,3,0,0,0-.38.45l-.42.52c-.15.2-.3.4-.43.59s-.25.37-.36.55V32.32c1,.62,2,1.23,3.05,1.84Z"/><path class="cls-7" d="M29.45,68.27l-2.07,1.25c-1,.61-2,1.22-3.05,1.84V62.93c.11.18.23.35.36.54s.28.4.43.6l.42.52a2.54,2.54,0,0,0,.38.44A18.87,18.87,0,0,0,29.45,68.27Z"/></svg>